# xmcd CD database file
#
# Track frame offsets:
#	150
#	20235
#	34510
#	49555
#	64862
#	94500
#	124627
#	140842
#	156722
#	169897
#	186025
#	194107
#	204470
#	218565
#	235942
#	252185
#	266102
#	275432
#	293772
#	307512
#
# Disc length: 4315 seconds
#
# Revision: 3
# Processed by: cddbd v1.5.2PL0 Copyright (c) Steve Scherf et al.
# Submitted via: CDex 1.70beta2
#
DISCID=2b10d914
DTITLE=Various Artist - Unknown CD for MusicBrainz and FreeDB
DYEAR=1900
DGENRE=
TTITLE0=Ricky Martin - Maria
TTITLE1=Peter Allen - I Got to Rio
TTITLE2=Gipsy Kings - Bamboleo
TTITLE3=Sailor - La Cumbia
TTITLE4=Santa Esmeralda - Don't let me be misunderstood
TTITLE5=Arrow - Hot Hot Hot
TTITLE6=Carlinhos Brown - A Namorada
TTITLE7=Harry Belafonte - Matilda
TTITLE8=Dean Martin - Volare
TTITLE9=Tito Puente and The Latin Rhytm Feat - Oye Como Va
TTITLE10=Trini Lopez - Conna get along without Ya now
TTITLE11=Booker and The MG's - Soul Limbo
TTITLE12=The Sandpipers - Guantanamera
TTITLE13=The Heartists - Belo Horizonti
TTITLE14=2 in A Room - Carnival
TTITLE15=Felicidade - Chegou a Hora
TTITLE16=The Mexicans - Spanish Flea
TTITLE17=Chiclete com Banana - Fé Brasileira
TTITLE18=Fruta Quente - Babae na Mixirica
TTITLE19=Lars Luis Linek and Claus Diercks - My sweet little Linda
EXTD=
EXTT0=
EXTT1=
EXTT2=
EXTT3=
EXTT4=
EXTT5=
EXTT6=
EXTT7=
EXTT8=
EXTT9=
EXTT10=
EXTT11=
EXTT12=
EXTT13=
EXTT14=
EXTT15=
EXTT16=
EXTT17=
EXTT18=
EXTT19=
PLAYORDER=
